# xmcd
#
# Track frame offsets:
#	150
#	13178
#	27042
#	38396
#	49961
#	64030
#	75403
#	87137
#	98338
#	110953
#	122533
#	136499
#	146512
#	158079
#	170392
#	183959
#	194092
#	202834
#	213518
#	224424
#	234926
#	246474
#	259905
#	273895
#
# Disc length: 3800 seconds
#
# Revision: 1
# Processed by: cddbd v1.5.2PL0 Copyright (c) Steve Scherf et al.
# Submitted via: audiograbber 1.83.01
#
DISCID=4b0ed618
DTITLE=ferlin husky - walkin' and a hummin' (1961) some of my favorites (1962)
DYEAR=2013
DGENRE=Country
TTITLE0=walkin' and a hummin'
TTITLE1=i'm so lonesome i could cry
TTITLE2=i could never be ashamed of you
TTITLE3=i can't help it (if i'm still in love with you)
TTITLE4=undesired
TTITLE5=may you never be alone
TTITLE6=my shadow
TTITLE7=i lost my love today
TTITLE8=alone and forsaken
TTITLE9=there'll be no teardrops tonight
TTITLE10=living in a trance
TTITLE11=why should we try anymore
TTITLE12=my adobe hacienda
TTITLE13=i fall to pieces
TTITLE14=the waltz you saved for me
TTITLE15=take good care of her
TTITLE16=danny boy
TTITLE17=willow tree
TTITLE18=near you
TTITLE19=never
TTITLE20=sentimental journey
TTITLE21=tumblin' tumbleweeds
TTITLE22=just for old times sake
TTITLE23=out of the clear blue sky
EXTD=
EXTT0=
EXTT1=
EXTT2=
EXTT3=
EXTT4=
EXTT5=
EXTT6=
EXTT7=
EXTT8=
EXTT9=
EXTT10=
EXTT11=
EXTT12=
EXTT13=
EXTT14=
EXTT15=
EXTT16=
EXTT17=
EXTT18=
EXTT19=
EXTT20=
EXTT21=
EXTT22=
EXTT23=
PLAYORDER=
